<?xml version="1.0" encoding="utf-8"?>
<!-- Generator: Adobe Illustrator 18.0.0, SVG Export Plug-In . SVG Version: 6.00 Build 0)  -->
<!DOCTYPE svg PUBLIC "-//W3C//DTD SVG 1.1//EN" "http://www.w3.org/Graphics/SVG/1.1/DTD/svg11.dtd">
<svg version="1.1" id="圖層_1" xmlns="http://www.w3.org/2000/svg" xmlns:xlink="http://www.w3.org/1999/xlink" x="0px" y="0px"
	 viewBox="0 0 64 64" enable-background="new 0 0 64 64" xml:space="preserve">
<g id="surface1">
	<path fill="#FFFFFF" d="M10,12c-3.3,0-6,2.7-6,6v28c0,3.3,2.7,6,6,6h44c3.3,0,6-2.7,6-6V18c0-3.3-2.7-6-6-6H10z M10,16h44
		c1.1,0,2,0.9,2,2v28c0,1.1-0.9,2-2,2H10c-1.1,0-2-0.9-2-2V18C8,16.9,8.8,16,10,16z M24,20V44l20-12L24,20z M28,27l8.2,5L28,37V27z"
		/>
</g>
</svg>
